<svg xmlns="http://www.w3.org/2000/svg" xmlns:xlink="http://www.w3.org/1999/xlink" width="2500" zoomAndPan="magnify" viewBox="0 0 1874.88 749.999995" height="1000" preserveAspectRatio="xMidYMid meet" version="1.0"><defs><g/><clipPath id="1c7aad5423"><path d="M 18.433594 18.652344 L 1024.503906 18.652344 L 1024.503906 412.632812 L 18.433594 412.632812 Z M 18.433594 18.652344 " clip-rule="nonzero"/></clipPath><clipPath id="a24df5cefc"><rect x="0" width="1047" y="0" height="566"/></clipPath></defs><g transform="matrix(1, 0, 0, 1, 415, 109)"><g clip-path="url(#a24df5cefc)"><g clip-path="url(#1c7aad5423)"><path stroke-linecap="butt" transform="matrix(1.924804, 0, 0, 1.924804, 18.431899, 18.652938)" fill="none" stroke-linejoin="miter" d="M 0.000880644 -0.000308721 L 522.687938 -0.000308721 L 522.687938 204.685675 L 0.000880644 204.685675 Z M 0.000880644 -0.000308721 " stroke="#000000" stroke-width="4.675501" stroke-opacity="1" stroke-miterlimit="4"/></g><g fill="#0c0300" fill-opacity="1"><g transform="translate(44.204144, 352.152631)"><g/></g></g><g fill="#0c0300" fill-opacity="1"><g transform="translate(103.87307, 352.152631)"><g><path d="M 15.390625 -269.46875 L 57.75 -269.46875 L 57.75 0 L 15.390625 0 Z M 15.390625 -269.46875 "/></g></g></g><g fill="#0c0300" fill-opacity="1"><g transform="translate(177.015655, 352.152631)"><g><path d="M 53.125 -195.171875 L 53.125 0 L 15.015625 0 L 15.015625 -269.46875 L 68.140625 -269.46875 L 111.640625 -108.171875 L 111.640625 -269.46875 L 149.359375 -269.46875 L 149.359375 0 L 105.859375 0 Z M 53.125 -195.171875 "/></g></g></g><g fill="#0c0300" fill-opacity="1"><g transform="translate(341.39397, 352.152631)"><g><path d="M 15.390625 -269.46875 L 82.375 -269.46875 C 103.675781 -269.46875 119.523438 -263.820312 129.921875 -252.53125 C 140.316406 -241.238281 145.515625 -224.6875 145.515625 -202.875 L 145.515625 -66.59375 C 145.515625 -44.78125 140.316406 -28.226562 129.921875 -16.9375 C 119.523438 -5.644531 103.675781 0 82.375 0 L 15.390625 0 Z M 57.75 -230.96875 L 57.75 -38.5 L 81.609375 -38.5 C 88.285156 -38.5 93.546875 -40.421875 97.390625 -44.265625 C 101.242188 -48.117188 103.171875 -54.921875 103.171875 -64.671875 L 103.171875 -204.796875 C 103.171875 -214.546875 101.242188 -221.34375 97.390625 -225.1875 C 93.546875 -229.039062 88.285156 -230.96875 81.609375 -230.96875 Z M 57.75 -230.96875 "/></g></g></g><g fill="#0c0300" fill-opacity="1"><g transform="translate(498.458025, 352.152631)"><g><path d="M 15.390625 -269.46875 L 82.375 -269.46875 C 103.675781 -269.46875 119.523438 -263.820312 129.921875 -252.53125 C 140.316406 -241.238281 145.515625 -224.6875 145.515625 -202.875 L 145.515625 -66.59375 C 145.515625 -44.78125 140.316406 -28.226562 129.921875 -16.9375 C 119.523438 -5.644531 103.675781 0 82.375 0 L 15.390625 0 Z M 57.75 -230.96875 L 57.75 -38.5 L 81.609375 -38.5 C 88.285156 -38.5 93.546875 -40.421875 97.390625 -44.265625 C 101.242188 -48.117188 103.171875 -54.921875 103.171875 -64.671875 L 103.171875 -204.796875 C 103.171875 -214.546875 101.242188 -221.34375 97.390625 -225.1875 C 93.546875 -229.039062 88.285156 -230.96875 81.609375 -230.96875 Z M 57.75 -230.96875 "/></g></g></g><g fill="#0c0300" fill-opacity="1"><g transform="translate(655.52211, 352.152631)"><g><path d="M 57.75 -155.90625 L 115.875 -155.90625 L 115.875 -117.40625 L 57.75 -117.40625 L 57.75 -38.5 L 130.890625 -38.5 L 130.890625 0 L 15.390625 0 L 15.390625 -269.46875 L 130.890625 -269.46875 L 130.890625 -230.96875 L 57.75 -230.96875 Z M 57.75 -155.90625 "/></g></g></g><g fill="#0c0300" fill-opacity="1"><g transform="translate(797.187703, 352.152631)"><g><path d="M 79.296875 -49.65625 L 111.640625 -269.46875 L 150.515625 -269.46875 L 108.9375 0 L 45.8125 0 L 4.234375 -269.46875 L 46.96875 -269.46875 Z M 79.296875 -49.65625 "/></g></g></g><g fill="#0c0300" fill-opacity="1"><g transform="translate(951.959808, 352.152631)"><g/></g></g><g fill="#0c0300" fill-opacity="1"><g transform="translate(116.707185, 536.467172)"><g><path d="M 89.8125 -92.765625 L 52.34375 0 L 36.765625 0 L -0.703125 -92.765625 L 13.15625 -92.765625 C 14.644531 -92.765625 15.859375 -92.398438 16.796875 -91.671875 C 17.742188 -90.953125 18.453125 -90.015625 18.921875 -88.859375 L 40.796875 -32.265625 C 41.523438 -30.429688 42.222656 -28.410156 42.890625 -26.203125 C 43.554688 -24.003906 44.1875 -21.707031 44.78125 -19.3125 C 45.289062 -21.707031 45.84375 -24.003906 46.4375 -26.203125 C 47.039062 -28.410156 47.707031 -30.429688 48.4375 -32.265625 L 70.1875 -88.859375 C 70.53125 -89.835938 71.203125 -90.734375 72.203125 -91.546875 C 73.210938 -92.359375 74.441406 -92.765625 75.890625 -92.765625 Z M 89.8125 -92.765625 "/></g></g></g><g fill="#0c0300" fill-opacity="1"><g transform="translate(227.62593, 536.467172)"><g><path d="M 27.65625 -79.046875 L 27.65625 -53.3125 L 60.109375 -53.3125 L 60.109375 -40.03125 L 27.65625 -40.03125 L 27.65625 -13.796875 L 68.84375 -13.796875 L 68.84375 0 L 10.328125 0 L 10.328125 -92.765625 L 68.84375 -92.765625 L 68.84375 -79.046875 Z M 27.65625 -79.046875 "/></g></g></g><g fill="#0c0300" fill-opacity="1"><g transform="translate(323.212855, 536.467172)"><g><path d="M 88.53125 -92.765625 L 88.53125 0 L 79.6875 0 C 78.3125 0 77.164062 -0.222656 76.25 -0.671875 C 75.332031 -1.117188 74.445312 -1.878906 73.59375 -2.953125 L 25.15625 -64.796875 C 25.40625 -61.972656 25.53125 -59.363281 25.53125 -56.96875 L 25.53125 0 L 10.328125 0 L 10.328125 -92.765625 L 19.375 -92.765625 C 20.101562 -92.765625 20.734375 -92.734375 21.265625 -92.671875 C 21.796875 -92.609375 22.265625 -92.476562 22.671875 -92.28125 C 23.078125 -92.09375 23.472656 -91.816406 23.859375 -91.453125 C 24.242188 -91.085938 24.675781 -90.609375 25.15625 -90.015625 L 73.78125 -27.90625 C 73.65625 -29.40625 73.546875 -30.878906 73.453125 -32.328125 C 73.367188 -33.785156 73.328125 -35.132812 73.328125 -36.375 L 73.328125 -92.765625 Z M 88.53125 -92.765625 "/></g></g></g><g fill="#0c0300" fill-opacity="1"><g transform="translate(443.882411, 536.467172)"><g><path d="M 75.125 -78.59375 L 47.15625 -78.59375 L 47.15625 0 L 29.890625 0 L 29.890625 -78.59375 L 1.921875 -78.59375 L 1.921875 -92.765625 L 75.125 -92.765625 Z M 75.125 -78.59375 "/></g></g></g><g fill="#0c0300" fill-opacity="1"><g transform="translate(542.676823, 536.467172)"><g><path d="M 47.671875 -13.921875 C 51.003906 -13.921875 53.984375 -14.476562 56.609375 -15.59375 C 59.242188 -16.707031 61.457031 -18.265625 63.25 -20.265625 C 65.050781 -22.273438 66.429688 -24.710938 67.390625 -27.578125 C 68.359375 -30.453125 68.84375 -33.660156 68.84375 -37.203125 L 68.84375 -92.765625 L 86.09375 -92.765625 L 86.09375 -37.203125 C 86.09375 -31.691406 85.203125 -26.59375 83.421875 -21.90625 C 81.648438 -17.226562 79.109375 -13.1875 75.796875 -9.78125 C 72.484375 -6.382812 68.453125 -3.734375 63.703125 -1.828125 C 58.953125 0.078125 53.609375 1.03125 47.671875 1.03125 C 41.679688 1.03125 36.3125 0.078125 31.5625 -1.828125 C 26.8125 -3.734375 22.78125 -6.382812 19.46875 -9.78125 C 16.15625 -13.1875 13.609375 -17.226562 11.828125 -21.90625 C 10.054688 -26.59375 9.171875 -31.691406 9.171875 -37.203125 L 9.171875 -92.765625 L 26.4375 -92.765625 L 26.4375 -37.28125 C 26.4375 -33.726562 26.914062 -30.519531 27.875 -27.65625 C 28.832031 -24.789062 30.21875 -22.34375 32.03125 -20.3125 C 33.851562 -18.28125 36.078125 -16.707031 38.703125 -15.59375 C 41.335938 -14.476562 44.328125 -13.921875 47.671875 -13.921875 Z M 47.671875 -13.921875 "/></g></g></g><g fill="#0c0300" fill-opacity="1"><g transform="translate(659.753936, 536.467172)"><g><path d="M 38.359375 -48.625 C 41.609375 -48.625 44.441406 -49.03125 46.859375 -49.84375 C 49.273438 -50.65625 51.265625 -51.773438 52.828125 -53.203125 C 54.390625 -54.640625 55.554688 -56.34375 56.328125 -58.3125 C 57.097656 -60.28125 57.484375 -62.441406 57.484375 -64.796875 C 57.484375 -69.503906 55.929688 -73.117188 52.828125 -75.640625 C 49.734375 -78.160156 45 -79.421875 38.625 -79.421875 L 27.59375 -79.421875 L 27.59375 -48.625 Z M 82.765625 0 L 67.171875 0 C 64.222656 0 62.082031 -1.15625 60.75 -3.46875 L 41.25 -33.171875 C 40.519531 -34.285156 39.71875 -35.078125 38.84375 -35.546875 C 37.96875 -36.015625 36.675781 -36.25 34.96875 -36.25 L 27.59375 -36.25 L 27.59375 0 L 10.328125 0 L 10.328125 -92.765625 L 38.625 -92.765625 C 44.90625 -92.765625 50.300781 -92.113281 54.8125 -90.8125 C 59.332031 -89.507812 63.035156 -87.679688 65.921875 -85.328125 C 68.804688 -82.972656 70.929688 -80.160156 72.296875 -76.890625 C 73.671875 -73.617188 74.359375 -70.015625 74.359375 -66.078125 C 74.359375 -62.953125 73.894531 -60 72.96875 -57.21875 C 72.050781 -54.445312 70.726562 -51.925781 69 -49.65625 C 67.269531 -47.382812 65.128906 -45.394531 62.578125 -43.6875 C 60.035156 -41.976562 57.140625 -40.632812 53.890625 -39.65625 C 55.003906 -39.007812 56.03125 -38.25 56.96875 -37.375 C 57.90625 -36.5 58.757812 -35.460938 59.53125 -34.265625 Z M 82.765625 0 "/></g></g></g><g fill="#0c0300" fill-opacity="1"><g transform="translate(764.065301, 536.467172)"><g><path d="M 27.65625 -79.046875 L 27.65625 -53.3125 L 60.109375 -53.3125 L 60.109375 -40.03125 L 27.65625 -40.03125 L 27.65625 -13.796875 L 68.84375 -13.796875 L 68.84375 0 L 10.328125 0 L 10.328125 -92.765625 L 68.84375 -92.765625 L 68.84375 -79.046875 Z M 27.65625 -79.046875 "/></g></g></g><g fill="#0c0300" fill-opacity="1"><g transform="translate(859.652194, 536.467172)"><g><path d="M 59.734375 -75.890625 C 59.210938 -74.992188 58.664062 -74.34375 58.09375 -73.9375 C 57.519531 -73.53125 56.800781 -73.328125 55.9375 -73.328125 C 55.039062 -73.328125 54.066406 -73.65625 53.015625 -74.3125 C 51.972656 -74.976562 50.722656 -75.71875 49.265625 -76.53125 C 47.816406 -77.34375 46.117188 -78.082031 44.171875 -78.75 C 42.222656 -79.414062 39.925781 -79.75 37.28125 -79.75 C 34.882812 -79.75 32.785156 -79.457031 30.984375 -78.875 C 29.191406 -78.300781 27.6875 -77.5 26.46875 -76.46875 C 25.25 -75.445312 24.335938 -74.21875 23.734375 -72.78125 C 23.140625 -71.351562 22.84375 -69.78125 22.84375 -68.0625 C 22.84375 -65.882812 23.453125 -64.066406 24.671875 -62.609375 C 25.890625 -61.160156 27.503906 -59.921875 29.515625 -58.890625 C 31.523438 -57.867188 33.8125 -56.953125 36.375 -56.140625 C 38.9375 -55.328125 41.566406 -54.457031 44.265625 -53.53125 C 46.960938 -52.613281 49.59375 -51.546875 52.15625 -50.328125 C 54.726562 -49.109375 57.019531 -47.566406 59.03125 -45.703125 C 61.039062 -43.847656 62.65625 -41.570312 63.875 -38.875 C 65.09375 -36.1875 65.703125 -32.914062 65.703125 -29.0625 C 65.703125 -24.875 64.984375 -20.953125 63.546875 -17.296875 C 62.109375 -13.640625 60.007812 -10.453125 57.25 -7.734375 C 54.5 -5.015625 51.132812 -2.875 47.15625 -1.3125 C 43.175781 0.25 38.617188 1.03125 33.484375 1.03125 C 30.535156 1.03125 27.628906 0.738281 24.765625 0.15625 C 21.898438 -0.414062 19.148438 -1.234375 16.515625 -2.296875 C 13.890625 -3.367188 11.421875 -4.65625 9.109375 -6.15625 C 6.796875 -7.65625 4.742188 -9.320312 2.953125 -11.15625 L 8.015625 -19.4375 C 8.441406 -20.039062 9 -20.546875 9.6875 -20.953125 C 10.375 -21.359375 11.101562 -21.5625 11.875 -21.5625 C 12.9375 -21.5625 14.085938 -21.117188 15.328125 -20.234375 C 16.566406 -19.359375 18.039062 -18.382812 19.75 -17.3125 C 21.46875 -16.25 23.46875 -15.28125 25.75 -14.40625 C 28.039062 -13.53125 30.789062 -13.09375 34 -13.09375 C 38.914062 -13.09375 42.722656 -14.253906 45.421875 -16.578125 C 48.117188 -18.910156 49.46875 -22.257812 49.46875 -26.625 C 49.46875 -29.0625 48.859375 -31.050781 47.640625 -32.59375 C 46.421875 -34.132812 44.804688 -35.425781 42.796875 -36.46875 C 40.785156 -37.519531 38.492188 -38.40625 35.921875 -39.125 C 33.359375 -39.851562 30.75 -40.644531 28.09375 -41.5 C 25.445312 -42.363281 22.835938 -43.394531 20.265625 -44.59375 C 17.703125 -45.789062 15.414062 -47.347656 13.40625 -49.265625 C 11.394531 -51.191406 9.78125 -53.597656 8.5625 -56.484375 C 7.34375 -59.367188 6.734375 -62.929688 6.734375 -67.171875 C 6.734375 -70.546875 7.40625 -73.835938 8.75 -77.046875 C 10.101562 -80.253906 12.0625 -83.097656 14.625 -85.578125 C 17.195312 -88.066406 20.363281 -90.054688 24.125 -91.546875 C 27.882812 -93.046875 32.203125 -93.796875 37.078125 -93.796875 C 42.554688 -93.796875 47.601562 -92.9375 52.21875 -91.21875 C 56.84375 -89.507812 60.78125 -87.117188 64.03125 -84.046875 Z M 59.734375 -75.890625 "/></g></g></g></g></g></svg>